# xmcd
# 
# Track frame offsets:
#     150
#     15068
#     36765
#     50433
#     66182
#     83937
#     114239
#     131915
#     151766
#     165568
#     191336
#     210914
#     227149
#     246865
# 
# Disc length: 3580
# 
# Revision: 6
# Processed by: cddbd v1.5.2PL0 Copyright (c) Steve Scherf et al.
# Submitted via: fre:ac v1.0.31
# 
DISCID=a60dfa0e
DTITLE=John Mayall - In The Palace Of The King
DYEAR=2007
DGENRE=Blues
TTITLE0=You Know That You Love Me
TTITLE1=Going Down
TTITLE2=Some Other Day, Some Other Time
TTITLE3=Palace Of The King
TTITLE4=I'd Rather Be Blind
TTITLE5=Time To Go
TTITLE6=Big Legged Woman
TTITLE7=Now I've Got A Woman
TTITLE8=I Love You More Every Day
TTITLE9=Help Me Through The Day
TTITLE10=Cannonball Shuffle
TTITLE11=You've Got Me Licked
TTITLE12=King Of The Kings
TTITLE13=Living On The Highway
EXTD=YEAR: 2007
EXTT0=
EXTT1=
EXTT2=
EXTT3=
EXTT4=
EXTT5=
EXTT6=
EXTT7=
EXTT8=
EXTT9=
EXTT10=
EXTT11=
EXTT12=
EXTT13=
PLAYORDER=
